{"accessors" : [{"bufferView" : 0, "byteOffset" : 0, "componentType" : 5123, "count" : 16548, "type" : "SCALAR", "max" : [16547], "min" : [0]}, {"bufferView" : 1, "byteOffset" : 0, "componentType" : 5126, "count" : 16548, "type" : "VEC3", "max" : [-0.3141409158706665, 0.48957061767578125, 2.3611867427825928], "min" : [-2.4071147441864014, -1.6014032363891602, -0.014291202649474144], "name" : "POSITION"}, {"bufferView" : 1, "byteOffset" : 12, "componentType" : 5126, "count" : 16548, "type" : "VEC3", "max" : [1.0000044107437134, 1.0000044107437134, 1.0000044107437134], "min" : [-1.0000044107437134, -1.0000044107437134, -1.0000044107437134], "name" : "NORMAL"}, {"bufferView" : 1, "byteOffset" : 24, "componentType" : 5126, "count" : 16548, "type" : "VEC2", "max" : [0.9679489135742188, -0.028684180229902267], "min" : [0.01598912477493286, -0.9864492416381836], "name" : "TEXCOORD_0"}, {"bufferView" : 0, "byteOffset" : 33096, "componentType" : 5123, "count" : 16548, "type" : "SCALAR", "max" : [16547], "min" : [0]}, {"bufferView" : 2, "byteOffset" : 0, "componentType" : 5126, "count" : 16548, "type" : "VEC3", "max" : [1.5028480291366577, -0.22937917709350586, 1.4575378894805908], "min" : [-0.22600317001342773, -1.9582304954528809, -0.00881195068359375], "name" : "POSITION"}, {"bufferView" : 2, "byteOffset" : 12, "componentType" : 5126, "count" : 16548, "type" : "VEC3", "max" : [0.9976879954338074, 0.9964781403541565, 1.0000044107437134], "min" : [-0.9974689483642578, -0.9959962368011475, -1.0000044107437134], "name" : "NORMAL"}, {"bufferView" : 2, "byteOffset" : 24, "componentType" : 5126, "count" : 16548, "type" : "VEC2", "max" : [0.9679489135742188, -0.028684180229902267], "min" : [0.01598912477493286, -0.9864492416381836], "name" : "TEXCOORD_0"}, {"bufferView" : 0, "byteOffset" : 66192, "componentType" : 5123, "count" : 16548, "type" : "SCALAR", "max" : [16547], "min" : [0]}, {"bufferView" : 3, "byteOffset" : 0, "componentType" : 5126, "count" : 16548, "type" : "VEC3", "max" : [3.517810344696045, 3.426693916320801, 2.3687448501586914], "min" : [-2.048213005065918, -1.0045175552368164, -0.014291167259216309], "name" : "POSITION"}, {"bufferView" : 3, "byteOffset" : 12, "componentType" : 5126, "count" : 16548, "type" : "VEC3", "max" : [0.9994606971740723, 0.9968672394752502, 1.0000044107437134], "min" : [-0.9985412359237671, -0.9961686730384827, -1.0000044107437134], "name" : "NORMAL"}, {"bufferView" : 3, "byteOffset" : 24, "componentType" : 5126, "count" : 16548, "type" : "VEC2", "max" : [0.9679489135742188, -0.028684180229902267], "min" : [0.01598912477493286, -0.9864492416381836], "name" : "TEXCOORD_0"}], "asset" : {"generator" : "Aspose.3D 23.9.0", "version" : "2.0"}, "buffers" : [{"uri" : "data:application/octet-stream;base64,", "byteLength" : 1687912}], "bufferViews" : [{"buffer" : 0, "byteOffset" : 0, "byteLength" : 99288, "target" : 34963}, {"buffer" : 0, "byteOffset" : 99292, "byteLength" : 529536, "byteStride" : 32, "target" : 34962}, {"buffer" : 0, "byteOffset" : 628832, "byteLength" : 529536, "byteStride" : 32, "target" : 34962}, {"buffer" : 0, "byteOffset" : 1158372, "byteLength" : 529536, "byteStride" : 32, "target" : 34962}], "images" : [{"uri" : "data:image/png;base64,"}, {"uri" : "data:image/png;base64,"}], "materials" : [{"name" : "Material", "pbrMetallicRoughness" : {"baseColorFactor" : [0.800000011920929, 0.800000011920929, 0.800000011920929, 1], "baseColorTexture" : {"index" : 1, "texCoord" : 0}, "metallicFactor" : 0, "roughnessFactor" : 0}, "normalTexture" : {"index" : 0, "texCoord" : 0, "scale" : 1}, "emissiveFactor" : [0, 0, 0], "alphaMode" : "OPAQUE", "doubleSided" : false}, {"name" : "Material", "pbrMetallicRoughness" : {"baseColorFactor" : [0.800000011920929, 0.800000011920929, 0.800000011920929, 1], "baseColorTexture" : {"index" : 1, "texCoord" : 0}, "metallicFactor" : 0, "roughnessFactor" : 0}, "normalTexture" : {"index" : 0, "texCoord" : 0, "scale" : 1}, "emissiveFactor" : [0, 0, 0], "alphaMode" : "OPAQUE", "doubleSided" : false}, {"name" : "Material", "pbrMetallicRoughness" : {"baseColorFactor" : [0.800000011920929, 0.800000011920929, 0.800000011920929, 1], "baseColorTexture" : {"index" : 1, "texCoord" : 0}, "metallicFactor" : 0, "roughnessFactor" : 0}, "normalTexture" : {"index" : 0, "texCoord" : 0, "scale" : 1}, "emissiveFactor" : [0, 0, 0], "alphaMode" : "OPAQUE", "doubleSided" : false}], "meshes" : [{"primitives" : [{"attributes" : {"POSITION" : 1, "NORMAL" : 2, "TEXCOORD_0" : 3}, "indices" : 0, "material" : 0, "mode" : 4}], "name" : "BezierCurve.004"}, {"primitives" : [{"attributes" : {"POSITION" : 5, "NORMAL" : 6, "TEXCOORD_0" : 7}, "indices" : 4, "material" : 1, "mode" : 4}], "name" : "BezierCurve.009"}, {"primitives" : [{"attributes" : {"POSITION" : 9, "NORMAL" : 10, "TEXCOORD_0" : 11}, "indices" : 8, "material" : 2, "mode" : 4}], "name" : "BezierCurve.010"}], "nodes" : [{"matrix" : [100, 0, 0, 0, 0, -1.6292067955264296E-05, -99.99999999999866, 0, 0, 99.99999999999866, -1.6292067955264296E-05, 0, 0, 0, 0, 1], "mesh" : 0, "name" : "Bow.002"}, {"matrix" : [100, 0, 0, 0, 0, -1.6292067955264296E-05, -99.99999999999866, 0, 0, 99.99999999999866, -1.6292067955264296E-05, 0, 0, 0, 0, 1], "mesh" : 1, "name" : "Bow.001"}, {"matrix" : [100, 0, 0, 0, 0, -1.6292067955264296E-05, -99.99999999999866, 0, 0, 99.99999999999866, -1.6292067955264296E-05, 0, 0, 0, 0, 1], "mesh" : 2, "name" : "Bow.003"}], "samplers" : [{"magFilter" : 9729, "minFilter" : 9729, "wrapS" : 10497, "wrapT" : 10497}, {"magFilter" : 9729, "minFilter" : 9729, "wrapS" : 10497, "wrapT" : 10497}], "scene" : 0, "scenes" : [{"nodes" : [0, 1, 2]}], "textures" : [{"sampler" : 0, "source" : 0, "name" : "normalmap_texture"}, {"sampler" : 1, "source" : 1, "name" : "base_color_texture"}]}